<?xml version="1.0" encoding="utf-8"?>
<!-- Generator: Adobe Illustrator 27.1.0, SVG Export Plug-In . SVG Version: 6.00 Build 0)  -->
<svg version="1.1" id="Layer_1" xmlns="http://www.w3.org/2000/svg" xmlns:xlink="http://www.w3.org/1999/xlink" x="0px" y="0px"
	 viewBox="0 0 1920 1080" style="enable-background:new 0 0 1920 1080;" xml:space="preserve">
<style type="text/css">
	.st0{fill-rule:evenodd;clip-rule:evenodd;fill:#FCA876;}
	.st1{fill:#FCA876;}
	.st2{fill-rule:evenodd;clip-rule:evenodd;fill:#FBE8BB;}
	.st3{fill:#FBE8BB;}
	.st4{fill-rule:evenodd;clip-rule:evenodd;fill:#FFFFFF;}
</style>
<path class="st0" d="M1023,1007.8c1-16.3,1.8-40.5-0.7-48.8c-4-12.8-10-33.5-10-33.5L970,935.8c0,0-1.6,0.9-3.7,6.5
	c-2.1,5.6,0.8,41.9,0.8,41.9l-3.1-0.3l-3-22l-3.1-1l-1.2-5.5l-14-1.5l-3.2-19.2l-4.7-1.5l-42.6,8.9l-2.5-33.5l-4.2-0.8l-1.2-10.7
	l-33.2-3.9l-9,1.5l-1.1,10.1l-3.9,0.2l-5.2,95.2l-8.9-0.2l-0.5-35.8l-15,0.6l-11.4,12l-0.9-16.8l-3.9-0.8l-5-50.2l-15.1-0.8l0,37.6
	l-4.2-3.9l-18.1-1.5l-5.1-8.1l-8.3-0.6l-0.2,50l-5,0.4l-2.1-1l-8-0.8l-1-48.6l-7.4-1.4c0,0-1.4-12-2.2-13c-0.8-1-2.9-6.6-4-6.6
	c-1.1,0-7.2,12.4-7.5,14.5c-0.3,2.1-0.7,13.9-0.7,13.9l-4.6-0.8l-4.9,1l-10.4-3.7l0.2-50l-11.3-1.5l-2.3-19.6l-38.5-4.5l-1.5,3.5
	l-14.1,0.6l-1,11l-3.9,0.2l-0.7,11.4l-4.4,1.7h-6.5v13.4h-17.1l-1.7,29.9l-15.5-0.6l-2.5-93.3h-26.3l0.9,120.9l-14.7,0.6
	c0,0-0.1,31.4-0.2,48.2h-28.1v-38.3h-65.9v38.3h-8.6c0.1-33.6,0.5-126.8,0.5-126.8l-24.1,1.2l-3.2,101.5l-25.6,1.2
	c0,0,0.3,12.7,0.4,22.9h-38.3v-90.2h-20.5v90.2h-18l-1-75.2l-20.1-1.8l-0.1-72.2l-19.9-9.4l-35.7,1.2l0.3,65.7l-20.3,3.5l0.2,44.6
	l-32.6,1.2c0,0-0.4,25.9-0.7,42.3h-0.7l-3.2-58.1l-1.9-0.5l-0.3-2.3l-1.9-0.1l-0.3-1.5l-13.4-0.1l-0.5,2.8l-3.9,0.1l-3.7-131.6
	l-5.6-0.5l-0.5-5.3l-3-0.1l-0.5-10.3l-1.6,0.2l-6.2,8.3l-1-2.1l-1.5,0.5l-0.8,3.1l-26.3-1.5l-0.3-9.2l-1.5,0.1l-7.2,14.2
	c0,0-11.4,12.5-11.6,13.2c-0.2,0.7-4.7,173-4.7,173l-10.9,0.7l-5.5,3.8l-0.3,3.2h-2.2c0.8-26.7,2.6-92.8,2.1-93.1
	c-0.6-0.4-9.2-0.4-9.2-0.4l0.2-5.8l-2.4-0.1l-0.6-1.8l-4.7,0.5L19,911l-2.1,0.4l-0.5,3l-4.4,0.4l-0.5,2l-1.2,0.2l-0.7,6.6L7.8,924
	l-2.9,83.8H-12v67.3h1045.4v-67.3H1023z"/>
<path class="st1" d="M2198.4,989.2h-6.5v-6h-3.1v3.9h-3.8v-5.7h-6.9v-6h-13.4v-17.2l-8.4-8.8h-33.6v-28.9h-3.4v-2.9h-31.3v2.1h-3.1
	v6.8h-11.8v52h-6.5v-17.4h-6.9v-20.5h-15.3V914h-9.2v-7h-9.5V886h-3.1v-11.7h-3.8v-9.4h-1.9l-2.7-21.1h-1.5l-2.7,21.6h-3.1v6
	c-19.5,7-27.1,14.3-27.1,14.3v55.9h-6.5v19.2h-4.6v-22.1h-1.9v-17.7h-11.4v17.7h-13.4v14h-16.8v36.7h-4.6v-4.7h-3.8v-76.2h-22.5
	v-24.7l-5.3-4.9v-6l-7.3-4.7v-20.8h-3.1v20.8l-6.5,4.2v-12h-2.7v-7.8h-3.6V827h-45.3v25.6h-4.1v7.8h-3.2v79.8h-9.9v-2.9h-4.6v3.6
	h-17.6v25.7h-8v-40h-8v-4.9h-6.9v-45h6.9v-7.3h-15.6v-10.1h-9.2v-4.2h-28.2v3.6h-37v75.1h-6.1v55.1h-10.3v-67.3h-17.8V813.5h-1.3
	v-1.3h-1.3v-1.4h-1.9v-8.2h-9.2v8.2h-18.7v1.4h-5.5v1.3h-5.3l-32.1,20.8v41.6l-69.2-11.8v57.5h-4.1v-5h-2.3v-10.4H1478v10.4h-7.2v5
	h-6.1v-36.5h3.4v-3.1h-7.6v-52.8h-1.5v-1.6H1441v1.6h-12.6v52.8h-6.2v-27.3h-1.5v-1.2h-6.6v-3.5h-35.1v3.5h-6.1v1.2h-1.5v27.3h-8.1
	v3.1h3.8v57.5h-5.3v-27h-27.7v-69.7h-5.5V810h-12.1v-26.9H1301l-9.1-13.7h-0.2l-4.5-46.9h0.3v-2h-6.2l-3.4-65.6h-1.3l-3.4,65.6h-6.3
	v2h0.5l-4.5,46.9h-0.1l-9.1,13.7h-14.1V810h-12.7v35.9h-5.5v92.3h-3.7l-14.2-93.6h-4.4v-47c-0.5-1.3-0.9-2.6-1.2-3.8
	c-2.2-9.1-2.5-18.4-1.5-27.7h-65v78.5h-3.3l-14.2,46.1h-25.4v-51.3h-1.5v-6.9h-19.3v6.9h-13.2v51.3h-7.6v1.9h-8.1v2.9h-4.1v38.5h-13
	v-4.4h-24v4.4h-3.4v21.8h-13v82.8l243.6,0.1v-0.2l973.2,0.2L2198.4,989.2z"/>
<rect x="1480" y="1031" class="st1" width="62" height="25"/>
<path id="XMLID_13_" class="st2" d="M135.1,991C135.1,991.1,135.1,991.1,135.1,991C135.1,991.1,135.1,991,135.1,991L135.1,991z
	 M-9.6,1040.9v39H1307v-73.8l-39-0.3l-3.8-45.5l-35.8,0.3l-1-36l-20.1,0.3l-0.5-13.4l-45.9-9.5l-41.6,4.7l2.9,59.2l-5.3,0.1
	l-1.4-9.8l-44.5-1l0.5,11l-6.5,0.4l0.2,4l-4.8,0.1l0.2-22.1l-30.9-1.7l-13.9,1.4l0.4,18.6l-8.7,0.4l-0.8,3.6l-5.6,0.4l-0.8-9.6
	l-43.9,0.3L956,953l-7.1-0.2l-1-2.6l-6.2-0.4l-9.2,0.6l0.2,2l-8.6-0.2l-14.2,1.1v5.8l-8.7,0.4l-1-25.6l-28-0.9l-14,4.6l-15.3,0.1
	l-4.5,1l-29.4-0.3l-2.6,1.2l0.1-5.3c0,0-4.5-0.9-8.4-0.9c-3.8,0-17.7,0.9-17.7,0.9l-0.6,4.9l-2.4,0.7l0.7,24.2l-3.6-0.3l-1.4-2.3
	l-8.4-0.1l-5,3.1l-0.1,2.2l-6.9-0.1l-2.4-14.1l-1.1,13.8l-1.6,0.1l-8.4,5.3l-1.1-8.2l-4-0.1l-0.3-1h-5.3l-0.5-4.9l-5.3-0.4l-0.7,3.1
	l-2,0.2l-0.6,3.1l-3.6,0.2l-0.6,9.3h-3.8l-0.1,14.9h-3.5l-0.7-32l-9.7,0l-0.7-2.4l-1.3-0.5l-20.9,0l-0.5-28.2l-1.7-2.3l-8.4-3.1
	l-21.8,0.5l-3.1,2.6l-0.1,29h-15.2l-0.2,8h-8.8l-0.3-7.3l-1.4-0.4l-0.6-2l-6.5-0.1l-0.2,1.8l-1.4,0.1c0,0-0.1,3.1-0.1,3.5
	c0,0.4-12.6,0.4-12.6,0.4l-0.7,10.7l-6,0.1l-0.2,5.9l-1.3-0.1l-0.5,4.3l-3.9,0.1l-0.7,1.2l-4.1,0l-0.1-1.1c0,0-4.6,0.1-4.9,0.2
	c-0.3,0.1-0.6-2-0.6-2l-3.1-0.3l-0.3-9.1l-5.5-0.9l-21.7,0.5l-0.5-13.5l-1.6-0.6l-0.1-9.5l-1-0.9l0.1-5.7l-4.4-1.7
	c0,0,0.6-11.9-0.7-13.8c-1.3-1.9-2.6-1.6-2.6-1.6s-0.2-0.5-0.2-1.7c0-1.2-1.3-4-1.3-4s0-1.6-0.2-3.1c-0.2-1.5-1.7-2.6-1.7-2.6
	s-0.4-1.1-0.8-2.8c-0.5-1.6-3.2-2.8-3.2-2.8s0.2-0.9-0.2-2.2c-0.4-1.3-2-2.4-2-2.4s0.1-1.2-0.2-2.3c-0.3-1.2-1.7-2.9-1.7-2.9
	l-2.6-22.4c0,0-0.5,15.4-0.8,17.6c-0.4,2.2-0.1,4.8-0.1,4.8s-0.4,0.2-1,1.3c-0.5,1.1-0.5,3.5-0.5,3.5s-0.8,0.4-1.1,1.4
	c-0.4,0.9-0.5,3.6-0.5,3.6s-1.7,0.6-2.5,1.8c-0.8,1.2-0.7,3.8-0.7,3.8s-0.7,0.4-1.5,1.1c-0.8,0.7-0.5,3.8-0.5,3.8s-0.2,0.1-0.9,0.8
	c-0.7,0.6-0.2,4-0.6,4.2c-0.4,0.2-0.5,2.8-0.5,2.8s-0.8,0.6-1.1,0.9c-0.2,0.3,0.2,14,0.2,14l-6.5,0.7l0.8,28.2l-7-0.1l-0.2,7.3
	l-2.1,0l0.1,10.4h-1.2l-0.5-24l-3.2-1.7v-3.5l-2.4-1.1l-1.1-3.3l-7.7,0.1l-0.5,3.6l-8,0.5l-8.6-0.1l-2,0.8l-17.2-0.1l-0.2,0.6
	l-9.2-0.4l-5.9,1.4l0.1,3.8l-2.9-0.1l-26.6,1.4V986l-1.7-0.2l-0.6-16.4h-8l-0.3-4.5l-14.2-0.2l-10.8,0.6l0-9.9l-1-0.5l-0.1-7
	l-2.6-0.4l-0.5-4.5l-2.8-0.4l-1-2l-1.9-0.9l-0.3-7l-0.7-0.7l0-1.7l-1-0.3l-1.1-11.9l-0.4,12.1l-1.2,0.3l-0.1,1.4l-0.7,0.7L338,940
	l-2.2,0.8l-0.2,1.4l-3.1,0.5l0,4.8l-3,0.2l0.4,23.7l-4.9-0.1v12.1l-5.3,0.2l-14.7,1l-0.1-15.1l-6.5,0.1l-0.4-10.7l-12.2-0.3
	l-28.5,2.1l-0.1,9.6l-15.8,0.5l-0.4,1.5l-3.9,0.1l-0.2-4.7l-18.5-0.4l-8.6,0.3l-0.1,4.8l-15.9,1.2l0.1,15.9l-8,0.4l-0.1,2.2
	l-1.9,0.3l-0.1,5.4l-4.1,0.4l-0.7,1.4h-7.4l-5.5,0.8l-0.5,2l-8.1-0.2L157,996l-3.8-0.1l-0.7-12.2l-17.3-0.1c0,0-0.2,6.8-0.2,7.4
	c-0.1-0.6-1.8-7.2-1.8-7.2l-4.2,0l-1.9,6.7l-5.6,0.2v1.8l-2.8-0.1l0.5-8.5l-1.3-0.1l-0.1-6.4l-3.5,0.2l-0.1-2h-1.9l-0.3-4L98,971.7
	l-0.2,3.9l-3.9,0.4l0.1,2.3l-2.3,0.2l-0.1,3.3l-6.5,0.5v2.4l-1.8,0.2l-0.4,30.7l-5.5-0.1l0.4-13.6l-4.8-0.2l-0.4-1.6h-6.5l-0.2,1.5
	h-7.4l-0.2-2.2l-9,0.1l-0.8,27.8l-5.9-0.1l-0.6-4.6l-7.9-0.6l-0.2-3.4l-24.1,0.4v22H-9.6z"/>
<path class="st3" d="M1229.2,942.2v4.2c-1,0.4-2.1,0.7-3.2,1.1v3.1c1.1-0.4,2.1-0.7,3.2-1.1v4.4c-1,0.3-2.1,0.6-3.2,0.9v3
	c1.1-0.3,2.1-0.6,3.2-0.9v6.9c-1,0.3-2.1,0.6-3.2,0.8v3c1.1-0.3,2.1-0.6,3.2-0.8v17.6l-3.2-0.1v20.3l41.2,0.4v30h-3.7v-9.8l-8.6,0.6
	v-5.4l-20.4,1.4v5.4l-8.5,0.6v52h1013.5v-69.3h-2.2v-8.4h-74.9v-12.8h-19.1v-12l-9.2-1v-9.1l-21.6-2.3v9.1l-9.2-1v16.3H2065v21.1
	h-25.4v-58.2h-20.5v-23h-16.6v-15l-25.3,2.3v-8.1l-21.6-2.3v12.4l-17.4,1.6v9.1h-16.6v26.8h-13.1v-6.9h-31.9v6.9h-3.5V786.3h-9.3
	v-36.7h-11v-28.8h-4.7V706l-9.6-9.6h-1.3v-30.2h-2v-26.6h-3.5v26.6h-2v30.2h-1.3l-9.6,9.6v14.8h-4.7v28.8h-11v36.7h-9.3v125
	l-37.8-4.9v38.3l-13.7,2.3c-1.7,0.3-3,1.8-3,3.5v10.4c-0.3,0.2-0.6,0.3-0.8,0.5v-9h-20v-8.9l-21.6-2.3v11.2h-7.1v19.8h-15.8v-16
	h-46.5v10.1c-15.9-6.5-32.7-16-50.2-29.6c-0.1-0.1-0.3-0.1-0.4-0.2c-0.8-0.6-1.8-0.9-2.9-0.7l-30.1,5c-1.8,0.3-3.1,1.8-3.2,3.5
	c-9.1,6-35.5,21.5-73.1,27.9c-0.7,0.1-1.4,0.2-2.2,0.4c-40.3,0.2-92.3-11.5-149.2-54.3v-1.2c0-3.1-2.8-5.5-5.9-5l-29.1,4.9
	c-0.5-0.2-1.1-0.1-1.5,0.3l-8.6,1.4c-1.7,0.3-3.1,1.4-3.8,3c-5.4,2.8-20.1,10.1-41.6,18.7v3.1
	C1227.1,943.1,1228.1,942.6,1229.2,942.2z M1749.4,965.2c-1.8,0.8-3.6,1.6-5.6,2.5c0.3-2.6,2.2-4.6,4.5-4.6c0.4,0,0.8,0.1,1.1,0.2
	V965.2z M1743.8,971.5c2-0.9,3.9-1.9,5.7-2.8v4.3h-5.7V971.5z M1738.7,968.4c0.3-0.2,0.6-0.4,0.8-0.5v1.5c-0.3,0.1-0.6,0.2-0.8,0.3
	V968.4z M1738.7,963.6c0.3-0.2,0.6-0.3,0.8-0.5v2.3c-0.3,0.2-0.6,0.4-0.8,0.6V963.6z M1596,957.3c-1.7-1.1-3.4-2.2-5.2-3.3v-5.2
	c1.7,1.2,3.4,2.3,5.2,3.4V957.3z M1596,964.5c-1.7-0.8-3.4-1.7-5.2-2.6v-5.6c1.7,1.1,3.4,2.2,5.2,3.3V964.5z M1596,971.7
	c-1.7-0.9-3.4-1.8-5.2-2.7v-4.9c1.7,0.9,3.4,1.8,5.2,2.6V971.7z M1596,995.4l-5.2-0.2v-24c1.7,0.9,3.5,1.8,5.2,2.7V995.4z
	 M1602.2,960.9c-1.7-1-3.4-2-5.2-3.1v-5.2c1.7,1.1,3.4,2.1,5.2,3.1V960.9z M1602.2,967.3c-1.7-0.8-3.4-1.5-5.2-2.4v-4.8
	c1.7,1,3.4,2.1,5.2,3.1V967.3z M1602.2,974.7c-1.7-0.8-3.4-1.6-5.2-2.5v-5c1.7,0.8,3.4,1.6,5.2,2.4V974.7z M1602.2,995.6l-5.2-0.2
	v-21c1.7,0.8,3.5,1.7,5.2,2.4V995.6z M1608.3,964.3c-1.7-0.9-3.4-1.9-5.2-2.8v-5.1c1.7,1,3.4,2,5.2,2.9V964.3z M1608.3,969.9
	c-1.7-0.7-3.4-1.4-5.2-2.1v-4c1.7,1,3.4,1.9,5.2,2.8V969.9z M1608.3,977.3c-1.7-0.7-3.4-1.4-5.2-2.2v-5.2c1.7,0.7,3.5,1.4,5.2,2.1
	V977.3z M1608.3,995.8l-5.2-0.2v-18.4c1.7,0.8,3.5,1.5,5.2,2.2V995.8z M1614.5,967.4c-1.7-0.8-3.4-1.7-5.2-2.6v-5
	c1.7,0.9,3.4,1.8,5.2,2.7V967.4z M1614.5,972.2c-1.7-0.6-3.4-1.2-5.2-1.9v-3.2c1.7,0.9,3.4,1.7,5.2,2.6V972.2z M1614.5,979.7
	c-1.7-0.6-3.4-1.3-5.2-2v-5.3c1.7,0.7,3.5,1.3,5.2,1.9V979.7z M1614.5,996l-5.2-0.2v-16c1.7,0.7,3.5,1.3,5.2,2V996z M1620.6,970.3
	c-1.7-0.7-3.4-1.5-5.2-2.4V963c1.7,0.8,3.4,1.7,5.2,2.5V970.3z M1620.6,974.2c-1.7-0.5-3.4-1.1-5.2-1.7v-2.4
	c1.7,0.8,3.4,1.6,5.2,2.3V974.2z M1620.6,981.8c-1.7-0.5-3.4-1.1-5.2-1.8v-5.4c1.7,0.6,3.5,1.2,5.2,1.7V981.8z M1620.6,996.1
	l-5.2-0.2v-13.8c1.7,0.6,3.5,1.2,5.2,1.7V996.1z M1626.8,972.8c-1.7-0.7-3.4-1.4-5.2-2.1v-4.8c1.7,0.8,3.4,1.5,5.2,2.2V972.8z
	 M1626.8,976c-1.7-0.5-3.4-0.9-5.2-1.5v-1.7c1.7,0.7,3.4,1.4,5.2,2.1V976z M1626.8,983.6c-1.7-0.5-3.4-1-5.2-1.5v-5.4
	c1.7,0.5,3.5,1,5.2,1.5V983.6z M1626.8,996.3l-5.2-0.2v-12c1.7,0.5,3.5,1,5.2,1.5V996.3z M1590.1,1008l35.3,0.3v4.5h-18.8v12.4
	h-16.4V1008z M1584.7,967.8c1.7,1,3.4,2,5.2,2.9v14.5l-5.2,0.4V967.8z M1584.7,960.8c1.7,1,3.4,1.9,5.2,2.8v4.9
	c-1.7-0.9-3.4-1.9-5.2-2.9V960.8z M1584.7,952.1c1.7,1.2,3.4,2.4,5.2,3.5v5.8c-1.7-0.9-3.4-1.8-5.2-2.8V952.1z M1584.7,944.5
	c1.7,1.2,3.4,2.4,5.2,3.6v5.2c-1.7-1.2-3.4-2.3-5.2-3.6V944.5z M1578.8,964.2c1.7,1,3.3,2,5,3v18.5l-5,0.4V964.2z M1578.8,957.4
	c1.6,1,3.3,2,5,2.9v4.7c-1.6-1-3.3-2-5-3V957.4z M1578.8,947.7c1.6,1.2,3.3,2.5,5,3.6v6.6c-1.6-0.9-3.3-1.9-5-2.9V947.7z
	 M1578.8,940.1c1.6,1.3,3.3,2.5,5,3.7v5.2c-1.6-1.2-3.3-2.4-5-3.7V940.1z M1561.8,962.6c0-3.1,2.2-5.6,4.9-5.6
	c0.6,0,1.1,0.1,1.6,0.3c0.6,0.4,1.2,0.9,1.8,1.3c0.9,1,1.5,2.5,1.5,4.1v24.1l-9.9,0.8V962.6z M1545.5,964.1c0-1.5,0.5-2.9,1.4-3.9
	c1.1-0.6,2.2-1.1,3.3-1.7c0.1,0,0.2,0,0.3,0c2.7,0,4.9,2.5,4.9,5.6v24l-9.9,0.8V964.1z M1326.3,935.8c-1.5-1-3-2.1-4.5-3.2v-6.9
	c1.5,1.1,3,2.1,4.5,3.2V935.8z M1326.3,946.3c-1.5-0.8-3-1.6-4.5-2.5v-7.6c1.5,1.1,3,2.1,4.5,3.1V946.3z M1326.3,957.1
	c-1.5-0.8-3-1.7-4.5-2.6v-7.3c1.5,0.8,3,1.7,4.5,2.5V957.1z M1326.3,987.4l-4.5-0.1v-29.4c1.5,0.9,3,1.7,4.5,2.6V987.4z
	 M1331.8,939.5c-1.5-1-3-2-4.5-3v-6.9c1.5,1,3,2,4.5,3V939.5z M1331.8,949.2c-1.5-0.8-3-1.5-4.5-2.4V940c1.5,1,3,2,4.5,3V949.2z
	 M1331.8,960.1c-1.5-0.8-3-1.6-4.5-2.5v-7.4c1.5,0.8,3,1.6,4.5,2.4V960.1z M1331.8,987.6l-4.5-0.1V961c1.5,0.8,3,1.7,4.5,2.4V987.6z
	 M1337.3,943c-1.5-0.9-3-1.9-4.5-2.9v-6.9c1.5,1,3,2,4.5,2.9V943z M1337.3,951.9c-1.5-0.7-3-1.5-4.5-2.2v-6.1c1.5,1,3,1.9,4.5,2.9
	V951.9z M1337.3,962.9c-1.5-0.8-3-1.5-4.5-2.3V953c1.5,0.8,3,1.5,4.5,2.2V962.9z M1337.3,987.7l-4.5-0.1v-23.7
	c1.5,0.8,3,1.6,4.5,2.3V987.7z M1342.8,946.3c-1.5-0.9-3-1.8-4.5-2.7v-6.9c1.5,0.9,3,1.9,4.5,2.8V946.3z M1342.8,954.5
	c-1.5-0.7-3-1.4-4.5-2.1V947c1.5,0.9,3,1.8,4.5,2.7V954.5z M1342.8,965.6c-1.5-0.7-3-1.4-4.5-2.2v-7.7c1.5,0.7,3,1.4,4.5,2.1V965.6z
	 M1436.3,978.2c-0.7-0.1-1.4-0.1-2.1-0.2c0.7,0,1.4,0,2.1,0V978.2z M1441.8,974.9c-1.5,0.1-3,0.1-4.5,0.1v-1.2
	c1.5,0.2,3,0.4,4.5,0.5V974.9z M1441.8,978.7c-1.5-0.1-3-0.2-4.5-0.4V978c1.5,0,3-0.1,4.5-0.1V978.7z M1441.8,986.2
	c-1.5,0.1-3,0.2-4.5,0.2v-5c1.5,0.1,3,0.3,4.5,0.4V986.2z M1441.8,990.8l-4.5-0.1v-1.4c1.5-0.1,3-0.1,4.5-0.2V990.8z M1445.4,974.7
	c-0.9,0-1.8,0.1-2.7,0.1v-0.4C1443.7,974.6,1444.6,974.7,1445.4,974.7z M1447.3,979c-1.5-0.1-3-0.2-4.5-0.3v-0.9
	c1.5-0.1,3-0.1,4.5-0.2V979z M1447.3,985.8c-1.5,0.1-3,0.2-4.5,0.3v-4.3c1.5,0.1,3,0.2,4.5,0.2V985.8z M1447.3,991l-4.5-0.1v-1.8
	c1.5-0.1,3-0.2,4.5-0.3V991z M1452.8,979.2c-1.5,0-3-0.1-4.5-0.1v-1.5c1.5-0.1,3-0.2,4.5-0.4V979.2z M1452.8,985.2
	c-1.5,0.2-3,0.3-4.5,0.5v-3.6c1.5,0.1,3,0.1,4.5,0.1V985.2z M1452.8,991.2l-4.5-0.1v-2.4c1.5-0.1,3-0.3,4.5-0.5V991.2z
	 M1458.3,979.2c-1.5,0-3,0-4.5,0V977c1.5-0.1,3-0.3,4.5-0.5V979.2z M1458.3,984.5c-1.5,0.2-3,0.4-4.5,0.6v-2.9c0.5,0,1,0,1.4,0
	c1,0,2.1,0,3.1,0V984.5z M1458.3,991.3l-4.5-0.1V988c1.5-0.2,3-0.4,4.5-0.6V991.3z M1463.8,979c-1.5,0.1-3,0.1-4.5,0.1v-2.7
	c1.5-0.2,3-0.4,4.5-0.6V979z M1463.8,983.6c-1.5,0.3-3,0.5-4.5,0.8v-2.2c1.5,0,3-0.1,4.5-0.1V983.6z M1463.8,991.5l-4.5-0.1v-4.1
	c1.5-0.2,3-0.5,4.5-0.8V991.5z M1469.3,978.7c-1.5,0.1-3,0.2-4.5,0.3v-3.3c0.2,0,0.5-0.1,0.7-0.1c1.3,0,2.5,0,3.8-0.1V978.7z
	 M1469.3,982.5c-1.5,0.3-3,0.6-4.5,0.9v-1.4c1.5-0.1,3-0.2,4.5-0.3V982.5z M1469.3,991.7l-4.5-0.1v-5.2c1.5-0.3,3-0.6,4.5-0.9V991.7
	z M1474.8,978.3c-1.5,0.1-3,0.3-4.5,0.4v-3.2c1.5,0,3-0.1,4.5-0.2V978.3z M1474.8,981.2c-1.1,0.3-2.1,0.5-3.2,0.8
	c-0.4,0.1-0.9,0.2-1.3,0.3v-0.7C1471.8,981.5,1473.3,981.4,1474.8,981.2L1474.8,981.2z M1474.8,991.8l-4.5-0.1v-6.4
	c0.7-0.2,1.4-0.3,2.1-0.4c0.8-0.2,1.6-0.4,2.4-0.6V991.8z M1480.3,977.6c-1.5,0.2-3,0.4-4.5,0.5v-2.9c1.5-0.1,3-0.2,4.5-0.3V977.6z
	 M1480.3,992l-4.5-0.1V984c1.5-0.4,3-0.8,4.5-1.2V992z M1485.8,976.9c-1.5,0.2-3,0.5-4.5,0.7v-2.6c1.5-0.1,3-0.3,4.5-0.4V976.9z
	 M1485.8,992.1l-4.5-0.1v-9.5c1.5-0.4,3-0.9,4.5-1.3V992.1z M1491.3,970.8c-1.5,0.2-3,0.4-4.5,0.6v-0.3c1.5-0.4,3-0.8,4.5-1.3V970.8
	z M1491.3,975.9c-1.5,0.3-3,0.5-4.5,0.8v-2.4c1.5-0.2,3-0.4,4.5-0.6V975.9z M1491.3,992.3l-4.5-0.1v-11.3c1.5-0.5,3-1,4.5-1.5V992.3
	z M1496.8,970c-1.5,0.2-3,0.5-4.5,0.7v-1.1c1.5-0.5,3.1-0.9,4.5-1.4V970z M1496.8,974.3c-1,0.4-1.9,0.7-2.9,1.1
	c-0.5,0.1-1.1,0.2-1.6,0.3v-2.1c1.5-0.2,3-0.4,4.5-0.7V974.3z M1496.8,992.5l-4.5-0.1v-13.3c0.8-0.3,1.7-0.6,2.5-0.9
	c0.7-0.1,1.4-0.3,2.1-0.4V992.5z M1502.3,969c-1.4,0.3-2.9,0.5-4.4,0.8c-0.1,0-0.1,0-0.2,0v-2c1.5-0.5,3.1-1,4.5-1.5V969z
	 M1502.3,972.1c-1.5,0.6-3,1.2-4.5,1.8v-1.2c0.3,0,0.5-0.1,0.8-0.1c1.3-0.2,2.5-0.4,3.7-0.7V972.1z M1502.3,992.6l-4.5-0.1v-14.9
	c0.1,0,0.2,0,0.3-0.1c1.4-0.3,2.8-0.6,4.2-1V992.6z M1507.8,967.9c-1.5,0.3-3,0.6-4.5,1V966c1.5-0.6,3.1-1.1,4.5-1.7V967.9z
	 M1507.8,992.8l-4.5-0.1v-16.4c1.5-0.4,3-0.8,4.5-1.2V992.8z M1513.3,966.6c-1.5,0.4-3,0.7-4.5,1.1v-3.8c1.6-0.6,3.1-1.2,4.5-1.8
	V966.6z M1513.3,993l-4.5-0.1v-18c1.5-0.4,3-0.9,4.5-1.3V993z M1518.8,964.3c-1.1,0.6-2.1,1.1-3.2,1.7c-0.4,0.1-0.9,0.2-1.3,0.3
	v-4.7c1.6-0.7,3.1-1.3,4.5-2V964.3z M1518.8,968.7c-1.5,0.5-3,1-4.5,1.5v-0.3c0.8-0.4,1.6-0.8,2.3-1.2c0.7-0.2,1.5-0.4,2.2-0.6
	V968.7z M1518.8,993.1l-4.5-0.1v-19.8c1.5-0.5,3-1,4.5-1.4V993.1z M1524.3,961.3c-1.4,0.8-3,1.7-4.5,2.5v-4.6
	c1.6-0.7,3.1-1.4,4.5-2.2V961.3z M1524.3,966.8c-1.5,0.5-3,1.1-4.5,1.6v-0.5c1.5-0.4,3-0.9,4.5-1.3V966.8z M1524.3,993.3l-4.5-0.1
	v-21.7c1.5-0.5,3-1.1,4.5-1.6V993.3z M1529.8,958c-1.4,0.9-2.9,1.8-4.5,2.7v-4.1c1.6-0.8,3.1-1.6,4.5-2.3V958z M1527.7,965.5
	c-0.8,0.3-1.6,0.6-2.4,0.9v-0.2C1526.1,966,1526.9,965.7,1527.7,965.5z M1529.8,961.7c-0.4,0.1-0.8,0.3-1.2,0.4
	c0.4-0.2,0.8-0.5,1.2-0.7V961.7z M1529.8,993.5l-4.5-0.1v-23.8c1.5-0.6,3.1-1.1,4.5-1.7V993.5z M1535.3,954.4
	c-1.4,0.9-2.9,1.9-4.5,3v-3.6c1.6-0.9,3.1-1.7,4.5-2.5V954.4z M1535.3,959.7c-1.5,0.6-3,1.1-4.5,1.6v-0.6c1.6-1,3.1-2,4.5-2.9V959.7
	z M1535.3,993.6l-4.5-0.1v-26.1c1.5-0.6,3.1-1.3,4.5-1.9V993.6z M1540.9,950.4c-1.3,1-2.8,2.1-4.6,3.3v-3c1.8-1,3.3-2,4.6-2.8V950.4
	z M1540.9,957.5c-1.5,0.6-3,1.2-4.6,1.8v-2.1c1.7-1.2,3.3-2.3,4.6-3.2V957.5z M1540.9,993.8l-4.6-0.1v-28.6c1.6-0.7,3.1-1.4,4.6-2.1
	V993.8z M1434.3,1006.6l106.6,0.9v17.7h-15.5v14.2h-27v8.4H1485v-32.7h-8.3v-4.2h-30v4.2h-12.3V1006.6z M1431.8,989.5
	c1.5,0,3,0,4.5-0.1v1.3l-4.5-0.1V989.5z M1431.8,980.8c1.5,0.2,3,0.3,4.5,0.5v5.1c-1.5,0-3,0.1-4.5,0.1V980.8z M1431.8,973
	c1.5,0.2,3,0.4,4.5,0.6v1.3c-1.5,0-3,0-4.5,0V973z M1426.3,989.4c1.5,0,3,0.1,4.5,0.1v1l-4.5-0.1V989.4z M1426.3,980.1
	c1.5,0.2,3,0.4,4.5,0.6v5.8c-1.5,0-3,0-4.5-0.1V980.1z M1426.3,972.1c1.5,0.3,3,0.5,4.5,0.8v2.1c-1.5,0-3-0.1-4.5-0.1V972.1z
	 M1420.8,989.2c1.5,0.1,3,0.1,4.5,0.2v1l-4.5-0.1V989.2z M1420.8,979.2c1.5,0.3,3,0.5,4.5,0.7v6.5c-1.5,0-3-0.1-4.5-0.2V979.2z
	 M1420.8,971c1.5,0.3,3,0.6,4.5,0.9v2.9c-1.5-0.1-3-0.1-4.5-0.3V971z M1415.3,988.8c1.5,0.1,3,0.2,4.5,0.3v1l-4.5-0.1V988.8z
	 M1415.3,978.1c1.5,0.3,3,0.6,4.5,0.9v7.1c-1.5-0.1-3-0.2-4.5-0.3V978.1z M1415.3,969.8c1.5,0.4,3,0.7,4.5,1v3.7
	c-1.5-0.1-3-0.2-4.5-0.4V969.8z M1409.8,988.3c1.5,0.2,3,0.3,4.5,0.4v1.3l-4.5-0.1V988.3z M1409.8,977c1.1,0.3,2.2,0.5,3.3,0.7
	c0.4,0.1,0.8,0.2,1.2,0.2v7.7c-1.5-0.1-3-0.3-4.5-0.5V977z M1409.8,968.4c1.4,0.4,2.8,0.8,4.2,1.1c0.1,0,0.2,0,0.3,0.1v4.5
	c-1.5-0.1-3-0.3-4.5-0.5V968.4z M1404.3,987.6c1.5,0.2,3,0.4,4.5,0.6v1.7l-4.5-0.1V987.6z M1404.3,975.9c0.7,0.1,1.3,0.2,2,0.3
	c0.9,0.2,1.7,0.4,2.6,0.6v8.4c-1.5-0.2-3-0.4-4.5-0.6V975.9z M1404.3,966.9c1.5,0.4,3,0.9,4.5,1.3v5.3c-0.5-0.1-1.1-0.1-1.6-0.2
	c-1-0.2-2-0.5-2.9-0.7V966.9z M1402.4,987.3c0.3,0,0.6,0.1,0.9,0.1v2.3l-0.9,0V987.3z M1398.8,975c1.5,0.3,3,0.5,4.5,0.7v8.6
	c-1.5-0.2-3-0.5-4.5-0.7V975z M1398.8,965.2c1.5,0.5,3,0.9,4.5,1.4v5.6c-1.5-0.4-3-0.8-4.5-1.3V965.2z M1393.3,974
	c1.5,0.3,3,0.6,4.5,0.9v8.6c-1.5-0.3-3-0.6-4.5-0.9V974z M1393.3,963.4c1.5,0.5,3,1,4.5,1.5v5.8c-1.5-0.4-3-0.9-4.5-1.4V963.4z
	 M1387.8,984.6c0.6,0.1,1.3,0.3,1.9,0.4c0.9,0.2,1.7,0.4,2.6,0.5v0.3l-4.5,0.3V984.6z M1387.8,972.8c1.5,0.3,3,0.7,4.5,1v8.6
	c-1.5-0.3-3-0.6-4.5-1V972.8z M1387.8,961.4c1.5,0.6,3,1.1,4.5,1.6v5.9c-1.5-0.5-3-1-4.5-1.5V961.4z M1382.2,983.2
	c1.5,0.4,3,0.8,4.5,1.1v1.9l-4.5,0.3V983.2z M1382.2,971.5c0.6,0.1,1.1,0.3,1.7,0.4c1,0.2,1.9,0.4,2.9,0.7v8.6
	c-1.5-0.4-3-0.7-4.5-1.1V971.5z M1382.2,959.3c1.5,0.6,3,1.2,4.5,1.8v6c-1.5-0.5-3-1.1-4.5-1.6V959.3z M1376.7,981.7
	c1.5,0.4,3,0.8,4.5,1.2v6.1l-4.5-0.1V981.7z M1376.7,970.1c1.5,0.4,3,0.8,4.5,1.2v8.5c-1.5-0.4-3-0.8-4.5-1.3V970.1z M1376.7,966.5
	c1,0.4,2,0.8,3.1,1.2c-1-0.3-2-0.5-3.1-0.8V966.5z M1376.7,957c1.5,0.6,3,1.3,4.5,1.9v6.2c-1.5-0.6-3-1.2-4.5-1.8V957z
	 M1371.2,980.1c1.5,0.5,3,0.9,4.5,1.4v7.4l-4.5-0.1V980.1z M1371.2,968.5c1.5,0.5,3,0.9,4.5,1.3v8.5c-1.5-0.4-3-0.9-4.5-1.4V968.5z
	 M1371.2,964.2c1.5,0.7,3,1.3,4.5,1.9v0.5c-1.5-0.4-3-0.9-4.5-1.3V964.2z M1371.2,954.6c1.5,0.7,3,1.4,4.5,2v6.3
	c-1.5-0.6-3-1.3-4.5-1.9V954.6z M1365.7,978.2c1.5,0.5,3,1,4.5,1.5v9l-4.5-0.1V978.2z M1365.7,966.7c1.5,0.5,3,1,4.5,1.5v8.4
	c-1.5-0.5-3-1-4.5-1.5V966.7z M1365.7,961.8c1.5,0.7,3,1.4,4.5,2v1.2c-1.5-0.5-3-1-4.5-1.5V961.8z M1365.7,952
	c1.5,0.7,3,1.4,4.5,2.1v6.4c-1.5-0.7-3-1.3-4.5-2V952z M1360.2,976.3c1.5,0.6,3,1.1,4.5,1.6v10.6l-4.5-0.1V976.3z M1360.2,964.8
	c1.5,0.5,3,1.1,4.5,1.6v8.3c-1.5-0.5-3-1.1-4.5-1.7V964.8z M1360.2,959.2c1.5,0.7,3,1.5,4.5,2.2v1.9c-1.5-0.5-3-1-4.5-1.6V959.2z
	 M1360.2,949.3c1.5,0.8,3,1.5,4.5,2.3v6.5c-1.5-0.7-3-1.4-4.5-2.2V949.3z M1354.7,974.1c1.5,0.6,3,1.2,4.5,1.8v12.5l-4.5-0.1V974.1z
	 M1354.7,962.7c1.5,0.6,3,1.2,4.5,1.7v8.2c-1.5-0.6-3-1.2-4.5-1.8V962.7z M1354.7,956.4c1.5,0.8,3,1.6,4.5,2.3v2.6
	c-1.5-0.6-3-1.1-4.5-1.7V956.4z M1354.7,946.4c1.5,0.8,3,1.6,4.5,2.4v6.6c-1.5-0.8-3-1.5-4.5-2.3V946.4z M1349.2,971.8
	c1.5,0.7,3,1.3,4.5,1.9v14.5l-4.5-0.1V971.8z M1349.2,960.5c1.5,0.6,3,1.2,4.5,1.8v8.1c-1.5-0.6-3-1.3-4.5-1.9V960.5z M1349.2,953.4
	c1.5,0.8,3,1.6,4.5,2.4v3.3c-1.5-0.6-3-1.2-4.5-1.8V953.4z M1349.2,943.3c1.5,0.9,3,1.7,4.5,2.5v6.7c-1.5-0.8-3-1.6-4.5-2.5V943.3z
	 M1343.7,969.4c1.5,0.7,3,1.4,4.5,2v16.7l-4.5-0.1V969.4z M1343.7,958.2c1.5,0.7,3,1.3,4.5,1.9v8c-1.5-0.7-3-1.4-4.5-2.1V958.2z
	 M1343.7,950.3c1.5,0.9,3,1.7,4.5,2.6v4c-1.5-0.6-3-1.3-4.5-2V950.3z M1343.7,940.1c1.5,0.9,3,1.8,4.5,2.7v6.7
	c-1.5-0.8-3-1.7-4.5-2.6V940.1z M1342.8,987.9l-4.5-0.1v-21c1.5,0.7,3,1.5,4.5,2.2V987.9z M1316.6,1005.6l26.1,0.2v7.1h-19.3v35
	h-6.8V1005.6z M1316.6,954.8c1.4,0.9,2.8,1.7,4.2,2.5v30l-4.2-0.1V954.8z M1316.6,944.3c1.4,0.8,2.8,1.6,4.2,2.4v7.2
	c-1.4-0.8-2.8-1.7-4.2-2.5V944.3z M1316.6,932.5c1.4,1,2.8,2,4.2,3v7.8c-1.4-0.8-2.8-1.6-4.2-2.4V932.5z M1316.6,921.9
	c1.4,1,2.8,2,4.2,3.1v6.9c-1.4-1-2.8-2-4.2-3.1V921.9z M1307.1,945.2c-1.9-1.3-3.8-2.6-5.7-3.9c0.8-0.3,1.5-0.7,2.1-1
	C1305.3,941.2,1306.6,943,1307.1,945.2z M1294.4,947c0-1,0.2-2,0.5-2.9c1.2-0.5,2.3-1,3.4-1.5c3,2.1,6,4.2,9,6.2v38l-12.9-0.4V947z
	 M1273.2,952.9c4.7-1.7,8.9-3.4,12.8-5c0,0.3,0.1,0.7,0.1,1.1v37.3l-12.9-0.4V952.9z M1273.2,948.9c0-2.5,1.1-4.7,2.8-6.1
	c1.3-0.4,2.6-0.9,3.9-1.3c2.2,0.1,4.1,1.5,5.2,3.5c-3.6,1.5-7.6,3-11.9,4.7V948.9z M1260.9,957.3c2.2-0.7,4.3-1.5,6.3-2.2v30.6
	l-6.3-0.2V957.3z M1260.9,947.7c2.2-0.7,4.3-1.3,6.3-2v6.2c-2,0.7-4.1,1.5-6.3,2.2V947.7z M1260.9,937.6c2.2-0.9,4.3-1.7,6.3-2.6
	v7.7c-2,0.7-4.1,1.3-6.3,2V937.6z M1260.9,928.2c2.6-1.2,4.7-2.3,6.3-3.1v6.7c-2,0.8-4.1,1.7-6.3,2.6V928.2z M1254.7,959.3
	c1.8-0.6,3.5-1.2,5.2-1.7v27.9l-5.2-0.2V959.3z M1254.7,949.6c1.8-0.5,3.5-1.1,5.2-1.6v6.5c-1.7,0.6-3.4,1.2-5.2,1.7V949.6z
	 M1254.7,940c1.8-0.7,3.5-1.4,5.2-2v7c-1.7,0.5-3.4,1.1-5.2,1.6V940z M1254.7,931.2c1.9-0.9,3.6-1.7,5.2-2.4v6.1
	c-1.7,0.7-3.4,1.4-5.2,2.1V931.2z M1248.6,961.3c1.8-0.6,3.5-1.1,5.2-1.7v25.6l-5.2-0.2V961.3z M1248.6,951.4c1.8-0.5,3.5-1,5.2-1.5
	v6.7c-1.7,0.6-3.4,1.1-5.2,1.7V951.4z M1248.6,942.4c1.8-0.7,3.5-1.3,5.2-2v6.5c-1.7,0.5-3.4,1-5.2,1.6V942.4z M1248.6,934
	c1.8-0.8,3.6-1.6,5.2-2.4v5.6c-1.7,0.7-3.4,1.3-5.2,2V934z M1242.4,963.2c1.8-0.5,3.5-1.1,5.2-1.6v23.5l-5.2-0.2V963.2z
	 M1242.4,953.2c1.8-0.5,3.5-1,5.2-1.5v6.8c-1.7,0.5-3.4,1.1-5.2,1.6V953.2z M1242.4,944.7c1.8-0.7,3.5-1.3,5.2-2v5.9
	c-1.7,0.5-3.4,1-5.2,1.5V944.7z M1242.4,936.7c1.8-0.8,3.5-1.5,5.2-2.3v5.2c-1.7,0.7-3.4,1.3-5.2,2V936.7z M1236.3,965
	c1-0.3,2-0.6,3-0.9c0.7-0.2,1.4-0.4,2.1-0.6v21.4l-5.2-0.2V965z M1236.3,955c1.7-0.5,3.5-1,5.2-1.5v6.9c-1,0.3-2,0.6-3,0.9
	c-0.7,0.2-1.4,0.4-2.1,0.6V955z M1236.3,947c1.8-0.6,3.5-1.3,5.2-1.9v5.4c-1.7,0.5-3.4,1-5.2,1.5V947z M1236.3,939.3
	c1.8-0.7,3.5-1.5,5.2-2.2v4.9c-1.7,0.6-3.4,1.3-5.2,1.9V939.3z M1230.1,966.7c1.8-0.5,3.5-1,5.2-1.4v19.5l-5.2-0.2V966.7z
	 M1230.1,956.7c1.7-0.5,3.5-1,5.2-1.4v6.9c-1.7,0.5-3.4,1-5.2,1.5V956.7z M1230.1,949.2c1.7-0.6,3.5-1.2,5.2-1.9v4.9
	c-1.7,0.5-3.4,1-5.2,1.5V949.2z M1230.1,941.8c1.8-0.7,3.5-1.4,5.2-2.1v4.6c-1.7,0.6-3.4,1.2-5.2,1.9V941.8z"/>
<rect x="1307" y="1002" class="st2" width="56" height="62"/>
<g>
	<path class="st4" d="M309.2,640.8l-3.5-3.9l-25.8,0.4l-14.9,19.2c0,0-3.1-1.7-7.4-1.7l-9.2-13.1c0,0,0.4-27.1-23.6-36.2
		c-2.4-0.9-1.7-9.9-4.2-10.5c0.4,0.1,1.4-5.3,1.4-5.8c0.3-3.3-0.9-6-2-9c0,0-1.3-3.5-0.7-6.5l2-0.9l-0.3-1.2l-0.7-0.3
		c0,0,0.4-4.8,0.2-5.8l29.3-2.3l-29.4-2.5c0,0-0.1-4.1-1.2-7l25.8-13.2l-27.7,8c0,0-2.2-3.9-4.5-6.1l16-24.8L207.7,539
		c0,0-6.3-2.3-7.9-2.6l-4.5-30.7l-1.7,30c0,0-5.2,1-8,4.2l-23.7-21.5l18.3,24.5c0,0-4.8,5.4-4.5,7h-19.8c0,0-4.1-30.1-8.2-41.2
		c-0.3-2.5-0.5-4.9-0.7-7.4c-0.5-5.4-0.7-9.5,0.1-14.8c0.9-5.8-0.2-11.6-2.6-16.8c0,0-1.5-3.2,1.7-5.2c0,0,16.9-8.8,1.1-26
		c2.3-1.5,4.8-3.9,5-6c0.3-3-3.7-5.6-3.7-5.6l0.2-5.1l-3.2-0.2l0.3-3c2.3-1.9,1.4-9,1.3-12.3c-0.1-3.3-5.3-11.7-4.9-8.8
		c0.4,3-3.6,7.2-3.3,6.6c0.3-0.6,0.5-3.5,0-7.2c-0.5-3.8-4-9.1-5.3-7.4c-1.3,1.7-8.4,12.4-10.8,15.9c-2.4,3.5-0.9,9.2-0.5,10.8
		c0.4,1.5,1.6,2.5,1.6,2.5v3l-3,0.8c0,0,0.5,4.4-0.5,5c-1,0.6-4.1,2.7-3.6,6.6c0.2,1.4,1.3,2.6,2.7,3.5c-1.2,1.4-2.3,3.2-3.1,5.5
		c0,0-6.4,14.8,7,21.8c1.1,0.6-0.2,7.6-0.1,9c0.2,4.2,3.1,7.6,3.6,11.4c0,0,0.9,7.3,1.9,12.2c0.6,3-0.2,6.7-0.1,9.8
		c0.1,6.8-0.7,13.6,0.2,20.3c0.4,2.7,0.8,5.4,1.3,8.1c0.8,4,2.8,7.6,3.4,11.7c0.4,2.7,2.3,9,1.3,11.3c0,0-12.7,17-12.7,27.5
		c0,0,3.1,12.2,10.1,12.2c0,0-3.1,21.8,4.4,21c0,0,0,4.8,0.9,7c0,0-5.7,16.2,1.3,17.9c0,0-15.3,52.8-1.3,57.2c0,0-7,17.5-2.2,25.8
		c0,0,5.7,25.8,5.7,27.9v11.4c0,0-3.9,20.5-3.1,29.3c0,0-6.1,44.5-0.9,61.1c0,0,3,5.7-3.5,14.4l-21.4,0.9l-12.2,7.9l-0.4,13.5
		l-10.1,5.2l0.4,4.4l2.6,2.6l-0.2,2.4h193.7v-13.8l-9.6-5.3l-1.3-14.4l-7.9-3.5c0,0-2.6-18.3-4.4-33.2l5.7-7.4l-2.2-24.9l3.5-5.7
		l-1.3-11.4l3.5-4.8c0,0-1.7-44.5-4.8-50.7c0,0,9.2,3.9,12.7-17c0,0,2.6-18.4,1.3-21c0,0,12.7,3.5,24-37.1l-2.6-6.1L309.2,640.8z
		 M160.5,556.6l12.8,1.5c-0.9,6.1-0.5,6.9-0.4,7l-9.2,0.3C163.7,562.4,160.5,556.6,160.5,556.6z M172.8,583.1c0,0-3.5-4.4-6.4-5.2
		c-1-0.3-0.6-0.6-0.6-0.6s0-1.5-0.9-7.3c0.1,0,0.1,0,0.2,0c1.3,0,2.6,0,3.9,0c0.7,0,1.5,0,2.2,0c0.6,0,1.4-0.2,1.6,0.5
		c0.3,0.7,0.9,2,2,4.2h-1.5l0.6,3.2l2.3,0.6c0,0-0.3,0,2.3,4.4L172.8,583.1z"/>
	<path class="st4" d="M335.6,1080.3c-1-18.4-1.6-32.6-1.5-37c0.3-15.7,20.9-22.1,20.9-22.1v-37.5h-36.6v-21.8l-8.6-10.1l-0.9-12.6
		l7.1-5.2l0.3-12l-6.8-0.6l-0.9-19l-14.1,1.2c-7.1-2.6-11.1-14.5-13.3-25H97.2c-6.5,13.5-18,22.4-18,22.4l-19.3,1.2l-0.8,18
		l-6.6,0.8l-0.8,10.2l7,7v15.6l-9,8.2l-0.8,20.5l-36,2.5l0.8,36.1l20.5,15.6l-2.1,43.7H335.6z"/>
</g>
</svg>
